# xmcd
#
# Track frame offsets:
#	150
#	17047
#	26546
#	38946
#	52418
#	63540
#	67499
#	81650
#	92528
#	105254
#	143879
#	154714
#	166504
#	177776
#	182762
#	200380
#	214902
#	222161
#	233525
#	249336
#	266479
#	273785
#	282587
#	296223
#	306682
#	315472
#	334268
#
# Disc length: 4700 seconds
#
# Revision: 1
# Processed by: cddbd v1.5.2PL0 Copyright (c) Steve Scherf et al.
# Submitted via: EZCDAudioConverter 8.5.0.1
#
DISCID=9a125a1b
DTITLE=Various Artist - Voices Of Mississippi: Artists And Musicians Document
DTITLE=ed By William Ferris
DYEAR=2018
DGENRE=Blues
TTITLE0=James Son Ford Thomas - 44 Blues
TTITLE1=Lovey Williams - I Feel So Good
TTITLE2=Wallace Pine-Top Johnson - Stackalee And Billy Lyons
TTITLE3=Scott Dunbar - Lil' Liza Jane
TTITLE4=Mississippi Fred McDowell - Big Fat Mama
TTITLE5=Louis Dotson - Bottle Blowing
TTITLE6=Sonny Boy Watson - Bring Me My Shotgun
TTITLE7=Sam Myers - Eyesight To The Blind
TTITLE8=James Son Ford Thomas - Cairo
TTITLE9=Scott Dunbar - Jaybird
TTITLE10=Tom Dumas - Cotton Eyed Joe
TTITLE11=Lovey Williams - Coal Black Mare
TTITLE12=Unidentified Musician With Mississippi Fred McDowell - I Dreamed I We
TTITLE12=nt To The U.N.
TTITLE13=Walter Lee Hood - Darling If You Must Leave
TTITLE14=Mississippi Fred McDowell - I Got A Letter From Hot Springs
TTITLE15=Wallace Pine-Top Johnson - Baby Loves To Boogie
TTITLE16=Wash Heron - Nothing
TTITLE17=James Son Ford Thomas - Dust My Broom
TTITLE18=Scott Dunbar - The Memphis Mail
TTITLE19=Sonny Boy Watson - Have You Seen My Baby
TTITLE20=James Hughes - Instrumental Guitar Piece In A
TTITLE21=Lovey Williams - Train I Ride
TTITLE22=Unidentified Musician With Mississippi Fred McDowell - Little Red Roo
TTITLE22=ster
TTITLE23=Leland Musician - Darlin' Why You Treat Me So?
TTITLE24=Inmates At Parchman Farm - Water Boy Drowned In The Mobile Bay
TTITLE25=George Lee Sun Bud Spears - I Ain't Gonna Live It No More
TTITLE26=James Son Ford Thomas With Sonny Boy Watson - I Cannot Stay Here Baby
EXTD=
EXTT0=
EXTT1=
EXTT2=
EXTT3=
EXTT4=
EXTT5=
EXTT6=
EXTT7=
EXTT8=
EXTT9=
EXTT10=
EXTT11=
EXTT12=
EXTT13=
EXTT14=
EXTT15=
EXTT16=
EXTT17=
EXTT18=
EXTT19=
EXTT20=
EXTT21=
EXTT22=
EXTT23=
EXTT24=
EXTT25=
EXTT26=
PLAYORDER=
